Coordinates
version=1
nRows=49
nColumns=12
inDegrees=yes

Units are S.I. units (second, meters, Newtons, ...)
Angles are in degrees

endheader
time	SC_y	SC_z	SC_x	AC_y	AC_z	AC_x	GH_y	GH_z	GH_yy	EL_x	PS_y
       0.0              -27.11          7.665          16.36          45.12          -19.4          19.52          63.38          88.72         -172.8           60.9          5.566
 5.837e-06              -27.11           7.67          16.37          45.12          -19.4          19.52          63.36           88.7         -172.8           60.9          5.585
 1.167e-05              -27.11          7.674          16.37          45.12          -19.4          19.52          63.34          88.69         -172.8          60.91          5.605
 1.751e-05              -27.11          7.679          16.37          45.11          -19.4          19.52          63.31          88.68         -172.7          60.92          5.626
 2.335e-05              -27.12          7.684          16.37          45.11         -19.39          19.52          63.29          88.66         -172.7          60.93          5.649
 2.919e-05              -27.12           7.69          16.38          45.11         -19.39          19.51          63.26          88.65         -172.6          60.94          5.674
 3.502e-05              -27.12          7.696          16.38          45.11         -19.39          19.51          63.23          88.63         -172.6          60.96            5.7
 4.086e-05              -27.12          7.702          16.38          45.11         -19.39          19.51           63.2          88.61         -172.5          60.97          5.727
  4.67e-05              -27.13          7.709          16.39           45.1         -19.38          19.51          63.17          88.59         -172.4          60.98          5.757
 5.254e-05              -27.13          7.717          16.39           45.1         -19.38           19.5          63.13          88.57         -172.4           61.0          5.789
 5.837e-05              -27.13          7.725           16.4           45.1         -19.37           19.5          63.09          88.55         -172.3          61.01          5.824
 6.421e-05              -27.14          7.733           16.4           45.1         -19.37           19.5          63.05          88.53         -172.2          61.03          5.861
 7.005e-05              -27.14          7.742           16.4          45.09         -19.36          19.49          63.01           88.5         -172.1          61.05            5.9
 7.589e-05              -27.15          7.752          16.41          45.09         -19.36          19.49          62.96          88.47         -172.0          61.06          5.943
 8.172e-05              -27.15          7.763          16.42          45.09         -19.35          19.49          62.91          88.44         -171.9          61.09           5.99
 8.756e-05              -27.15          7.774          16.42          45.08         -19.35          19.48          62.85          88.41         -171.8          61.11          6.041
  9.34e-05              -27.16          7.787          16.43          45.08         -19.34          19.48          62.79          88.38         -171.7          61.13          6.095
 9.923e-05              -27.17          7.801          16.43          45.07         -19.33          19.47          62.72          88.34         -171.6          61.16          6.155
 0.0001051              -27.17          7.816          16.44          45.07         -19.33          19.47          62.65           88.3         -171.5          61.19          6.221
 0.0001109              -27.18          7.832          16.45          45.06         -19.32          19.46          62.57          88.25         -171.3          61.22          6.292
 0.0001167              -27.19           7.85          16.46          45.06         -19.31          19.45          62.48           88.2         -171.1          61.25          6.371
 0.0001226              -27.19           7.87          16.47          45.05          -19.3          19.45          62.39          88.15         -171.0          61.29          6.457
 0.0001284               -27.2          7.892          16.48          45.04         -19.29          19.44          62.28          88.09         -170.8          61.34          6.552
 0.0001343              -27.21          7.917          16.49          45.03         -19.28          19.43          62.16          88.02         -170.5          61.38          6.658
 0.0001401              -27.23          7.944          16.51          45.02         -19.26          19.42          62.03          87.94         -170.3          61.44          6.776
 0.0001459              -27.24          7.974          16.52          45.01         -19.25          19.41          61.89          87.86         -170.0          61.49          6.907
 0.0001518              -27.25          8.008          16.54           45.0         -19.23          19.39          61.72          87.77         -169.7          61.56          7.054
 0.0001576              -27.27          8.046          16.56          44.99         -19.21          19.38          61.54          87.66         -169.4          61.63          7.219
 0.0001634              -27.29          8.089          16.58          44.97         -19.19          19.36          61.33          87.54         -169.0          61.72          7.406
 0.0001693              -27.31          8.138          16.61          44.96         -19.16          19.34          61.09          87.41         -168.5          61.81          7.618
 0.0001751              -27.33          8.193          16.64          44.94         -19.13          19.32          60.82          87.25         -168.0          61.92           7.86
  0.000181              -27.36          8.257          16.67          44.91          -19.1           19.3          60.51          87.07         -167.4          62.04          8.138
 0.0001868              -27.39          8.331          16.71          44.89         -19.06          19.27          60.15          86.87         -166.8          62.18          8.459
 0.0001926              -27.42          8.417          16.75          44.86         -19.02          19.24          59.74          86.63         -166.0          62.35          8.831
 0.0001985              -27.47          8.517           16.8          44.82         -18.97           19.2          59.25          86.35         -165.1          62.54          9.267
 0.0002043              -27.52          8.636          16.87          44.78         -18.91          19.16          58.68          86.03         -164.0          62.77          9.782
 0.0002101              -27.57          8.776          16.94          44.73         -18.83           19.1          57.99          85.64         -162.7          63.05          10.39
  0.000216              -27.64          8.945          17.03          44.68         -18.75          19.04          57.18          85.17         -161.1          63.37          11.12
 0.0002218              -27.73          9.149          17.13          44.61         -18.64          18.96          56.19           84.6         -159.3          63.77          12.01
 0.0002277              -27.83          9.398          17.26          44.52         -18.51          18.87          54.98          83.91         -157.0          64.25          13.09
 0.0002335              -27.96          9.705          17.42          44.41         -18.36          18.75          53.49          83.06         -154.2          64.84          14.43
 0.0002393              -28.12          10.09          17.62          44.28         -18.16          18.61          51.63           82.0         -150.7          65.58          16.09
 0.0002452              -28.33          10.57          17.87          44.11         -17.91          18.42          49.29          80.66         -146.3          66.52          18.19
  0.000251              -28.58          11.19          18.18           43.9         -17.59          18.19          46.31          78.96         -140.7          67.71          20.86
 0.0002568              -28.91          11.97          18.59          43.63         -17.19          17.89           42.5          76.78         -133.5          69.23          24.27
 0.0002627              -29.33          12.98          19.11          43.28         -16.67          17.51          37.61          73.99         -124.3          71.18          28.65
 0.0002685              -29.87          14.27          19.77          42.83         -16.01          17.02          31.36          70.42         -112.5          73.67          34.25
 0.0002744              -30.55          15.89          20.61          42.27         -15.18          16.41          23.51          65.93         -97.74           76.8          41.29
 0.0002802              -31.38          17.86          21.63          41.59         -14.16          15.67          13.93          60.46         -79.72          80.62          49.86
